<svg width="176" height="47" viewBox="0 0 176 47" fill="none" xmlns="http://www.w3.org/2000/svg">
<g clip-path="url(#clip0)">
<g filter="url(#filter0_d)">
<path d="M296.289 -143.732L99.436 -138.803L96 12.1473L292.853 22.602L296.289 -143.732Z" fill="#1F9393"/>
</g>
<path d="M296.289 -143.732L99.436 -138.803L96 12.1473L292.853 22.602L296.289 -143.732Z" fill="#6301E4"/>
<g filter="url(#filter1_d)">
<path d="M2 -91.8942L172.032 -88.6347L175 11.153L4.968 18.0647L2 -91.8942Z" fill="#1F9393"/>
</g>
<path d="M2 -91.8942L172.032 -88.6347L175 11.153L4.968 18.0647L2 -91.8942Z" fill="#2AA6A6"/>
<g filter="url(#filter2_d)">
<path d="M102.504 -60.7153L233.944 -65.973C235.326 -66.0279 236.447 -65.1742 236.447 -64.0644V41.3571C236.447 42.4661 235.326 43.3206 233.943 43.2641L102.503 37.9782C101.121 37.9232 100 37.0687 100 36.0704V-58.8083C100 -59.8058 101.12 -60.6604 102.504 -60.7153Z" fill="#1F9393"/>
</g>
<path d="M102.504 -60.7153L233.944 -65.973C235.326 -66.0279 236.447 -65.1742 236.447 -64.0644V41.3571C236.447 42.4661 235.326 43.3206 233.943 43.2641L102.503 37.9782C101.121 37.9232 100 37.0687 100 36.0704V-58.8083C100 -59.8058 101.12 -60.6604 102.504 -60.7153Z" fill="#1F9393"/>
<g filter="url(#filter3_d)">
<path d="M96 -18.0647H143.415V24.8083L96 22.9036V-18.0647Z" fill="#1F9393"/>
</g>
<path d="M96 -18.0647H143.415V24.8083L96 22.9036V-18.0647Z" fill="#2AA6A6"/>
<g filter="url(#filter4_d)">
<path d="M78 -3.70876L114.839 -4.71252V26.9164L78 24.9607V-3.70876Z" fill="#1F9393"/>
</g>
<path d="M78 -3.70876L114.839 -4.71252V26.9164L78 24.9607V-3.70876Z" fill="#2FBABA"/>
</g>
<defs>
<filter id="filter0_d" x="92" y="-145.732" width="208.289" height="174.334" filterUnits="userSpaceOnUse" color-interpolation-filters="sRGB">
<feFlood flood-opacity="0" result="BackgroundImageFix"/>
<feColorMatrix in="SourceAlpha" type="matrix" values="0 0 0 0 0 0 0 0 0 0 0 0 0 0 0 0 0 0 127 0"/>
<feOffset dy="2"/>
<feGaussianBlur stdDeviation="2"/>
<feColorMatrix type="matrix" values="0 0 0 0 0 0 0 0 0 0 0 0 0 0 0 0 0 0 0.08 0"/>
<feBlend mode="normal" in2="BackgroundImageFix" result="effect1_dropShadow"/>
<feBlend mode="normal" in="SourceGraphic" in2="effect1_dropShadow" result="shape"/>
</filter>
<filter id="filter1_d" x="-2" y="-93.8942" width="181" height="117.959" filterUnits="userSpaceOnUse" color-interpolation-filters="sRGB">
<feFlood flood-opacity="0" result="BackgroundImageFix"/>
<feColorMatrix in="SourceAlpha" type="matrix" values="0 0 0 0 0 0 0 0 0 0 0 0 0 0 0 0 0 0 127 0"/>
<feOffset dy="2"/>
<feGaussianBlur stdDeviation="2"/>
<feColorMatrix type="matrix" values="0 0 0 0 0 0 0 0 0 0 0 0 0 0 0 0 0 0 0.08 0"/>
<feBlend mode="normal" in2="BackgroundImageFix" result="effect1_dropShadow"/>
<feBlend mode="normal" in="SourceGraphic" in2="effect1_dropShadow" result="shape"/>
</filter>
<filter id="filter2_d" x="96" y="-67.9755" width="144.447" height="117.242" filterUnits="userSpaceOnUse" color-interpolation-filters="sRGB">
<feFlood flood-opacity="0" result="BackgroundImageFix"/>
<feColorMatrix in="SourceAlpha" type="matrix" values="0 0 0 0 0 0 0 0 0 0 0 0 0 0 0 0 0 0 127 0"/>
<feOffset dy="2"/>
<feGaussianBlur stdDeviation="2"/>
<feColorMatrix type="matrix" values="0 0 0 0 0 0 0 0 0 0 0 0 0 0 0 0 0 0 0.2 0"/>
<feBlend mode="normal" in2="BackgroundImageFix" result="effect1_dropShadow"/>
<feBlend mode="normal" in="SourceGraphic" in2="effect1_dropShadow" result="shape"/>
</filter>
<filter id="filter3_d" x="92" y="-20.0647" width="55.415" height="50.873" filterUnits="userSpaceOnUse" color-interpolation-filters="sRGB">
<feFlood flood-opacity="0" result="BackgroundImageFix"/>
<feColorMatrix in="SourceAlpha" type="matrix" values="0 0 0 0 0 0 0 0 0 0 0 0 0 0 0 0 0 0 127 0"/>
<feOffset dy="2"/>
<feGaussianBlur stdDeviation="2"/>
<feColorMatrix type="matrix" values="0 0 0 0 0 0 0 0 0 0 0 0 0 0 0 0 0 0 0.1 0"/>
<feBlend mode="normal" in2="BackgroundImageFix" result="effect1_dropShadow"/>
<feBlend mode="normal" in="SourceGraphic" in2="effect1_dropShadow" result="shape"/>
</filter>
<filter id="filter4_d" x="70" y="-10.7125" width="52.839" height="47.6289" filterUnits="userSpaceOnUse" color-interpolation-filters="sRGB">
<feFlood flood-opacity="0" result="BackgroundImageFix"/>
<feColorMatrix in="SourceAlpha" type="matrix" values="0 0 0 0 0 0 0 0 0 0 0 0 0 0 0 0 0 0 127 0"/>
<feOffset dy="2"/>
<feGaussianBlur stdDeviation="4"/>
<feColorMatrix type="matrix" values="0 0 0 0 0 0 0 0 0 0 0 0 0 0 0 0 0 0 0.1 0"/>
<feBlend mode="normal" in2="BackgroundImageFix" result="effect1_dropShadow"/>
<feBlend mode="normal" in="SourceGraphic" in2="effect1_dropShadow" result="shape"/>
</filter>
<clipPath id="clip0">
<rect width="176" height="46.3398" fill="white"/>
</clipPath>
</defs>
</svg>
